<svg width="203" height="40" viewBox="0 0 203 40" fill="none" xmlns="http://www.w3.org/2000/svg">
<path d="M58.6527 34.3977C57.4276 34.3977 56.377 34.229 55.5011 33.8917C54.631 33.5603 53.9386 33.1075 53.4237 32.5334C52.9087 31.9593 52.5743 31.3142 52.4205 30.598L55.9183 30.1275C56.0249 30.3997 56.1935 30.6542 56.4244 30.891C56.6552 31.1277 56.96 31.3171 57.3388 31.4592C57.7235 31.6071 58.1911 31.6811 58.7415 31.6811C59.5642 31.6811 60.2418 31.4799 60.7745 31.0774C61.3131 30.6809 61.5824 30.015 61.5824 29.0799V26.5852H61.4226C61.2569 26.964 61.0083 27.3221 60.6768 27.6594C60.3454 27.9968 59.9193 28.272 59.3984 28.4851C58.8776 28.6982 58.2562 28.8047 57.5341 28.8047C56.5102 28.8047 55.578 28.5679 54.7376 28.0945C53.9031 27.6151 53.2372 26.8841 52.7401 25.9016C52.2488 24.9132 52.0032 23.6644 52.0032 22.1552C52.0032 20.6104 52.2547 19.3202 52.7578 18.2844C53.2609 17.2487 53.9297 16.4734 54.7642 15.9585C55.6046 15.4435 56.525 15.1861 57.5252 15.1861C58.2887 15.1861 58.9279 15.3163 59.4428 15.5767C59.9577 15.8312 60.372 16.1508 60.6857 16.5355C61.0053 16.9143 61.2509 17.2872 61.4226 17.6541H61.5646V15.3636H65.32V29.1332C65.32 30.2932 65.0359 31.2638 64.4677 32.0451C63.8995 32.8263 63.1123 33.4123 62.1062 33.8029C61.1059 34.1995 59.9548 34.3977 58.6527 34.3977ZM58.7326 25.9638C59.3422 25.9638 59.8571 25.8129 60.2773 25.511C60.7035 25.2032 61.029 24.7653 61.2539 24.1971C61.4847 23.623 61.6001 22.9364 61.6001 22.1374C61.6001 21.3384 61.4877 20.646 61.2628 20.06C61.0379 19.4682 60.7124 19.0095 60.2862 18.6839C59.8601 18.3584 59.3422 18.1957 58.7326 18.1957C58.1112 18.1957 57.5874 18.3643 57.1612 18.7017C56.7351 19.0331 56.4125 19.4948 56.1935 20.0866C55.9746 20.6785 55.8651 21.3621 55.8651 22.1374C55.8651 22.9246 55.9746 23.6052 56.1935 24.1793C56.4184 24.7475 56.741 25.1884 57.1612 25.5021C57.5874 25.8099 58.1112 25.9638 58.7326 25.9638ZM74.4908 29.2663C73.1117 29.2663 71.9192 28.9734 70.913 28.3874C69.9128 27.7956 69.1404 26.9729 68.5959 25.9194C68.0514 24.86 67.7791 23.6319 67.7791 22.2351C67.7791 20.8265 68.0514 19.5954 68.5959 18.5419C69.1404 17.4825 69.9128 16.6598 70.913 16.0739C71.9192 15.482 73.1117 15.1861 74.4908 15.1861C75.8698 15.1861 77.0594 15.482 78.0597 16.0739C79.0658 16.6598 79.8411 17.4825 80.3857 18.5419C80.9302 19.5954 81.2024 20.8265 81.2024 22.2351C81.2024 23.6319 80.9302 24.86 80.3857 25.9194C79.8411 26.9729 79.0658 27.7956 78.0597 28.3874C77.0594 28.9734 75.8698 29.2663 74.4908 29.2663ZM74.5085 26.3366C75.1359 26.3366 75.6597 26.1591 76.0799 25.804C76.5001 25.4429 76.8168 24.9517 77.0298 24.3303C77.2488 23.7088 77.3583 23.0015 77.3583 22.2085C77.3583 21.4154 77.2488 20.7081 77.0298 20.0866C76.8168 19.4652 76.5001 18.974 76.0799 18.6129C75.6597 18.2519 75.1359 18.0714 74.5085 18.0714C73.8752 18.0714 73.3426 18.2519 72.9105 18.6129C72.4844 18.974 72.1618 19.4652 71.9428 20.0866C71.7298 20.7081 71.6232 21.4154 71.6232 22.2085C71.6232 23.0015 71.7298 23.7088 71.9428 24.3303C72.1618 24.9517 72.4844 25.4429 72.9105 25.804C73.3426 26.1591 73.8752 26.3366 74.5085 26.3366ZM89.8228 29.2663C88.4438 29.2663 87.2512 28.9734 86.245 28.3874C85.2448 27.7956 84.4724 26.9729 83.9279 25.9194C83.3834 24.86 83.1112 23.6319 83.1112 22.2351C83.1112 20.8265 83.3834 19.5954 83.9279 18.5419C84.4724 17.4825 85.2448 16.6598 86.245 16.0739C87.2512 15.482 88.4438 15.1861 89.8228 15.1861C91.2018 15.1861 92.3915 15.482 93.3917 16.0739C94.3978 16.6598 95.1732 17.4825 95.7177 18.5419C96.2622 19.5954 96.5344 20.8265 96.5344 22.2351C96.5344 23.6319 96.2622 24.86 95.7177 25.9194C95.1732 26.9729 94.3978 27.7956 93.3917 28.3874C92.3915 28.9734 91.2018 29.2663 89.8228 29.2663ZM89.8406 26.3366C90.4679 26.3366 90.9917 26.1591 91.4119 25.804C91.8321 25.4429 92.1488 24.9517 92.3619 24.3303C92.5808 23.7088 92.6903 23.0015 92.6903 22.2085C92.6903 21.4154 92.5808 20.7081 92.3619 20.0866C92.1488 19.4652 91.8321 18.974 91.4119 18.6129C90.9917 18.2519 90.4679 18.0714 89.8406 18.0714C89.2073 18.0714 88.6746 18.2519 88.2425 18.6129C87.8164 18.974 87.4938 19.4652 87.2749 20.0866C87.0618 20.7081 86.9553 21.4154 86.9553 22.2085C86.9553 23.0015 87.0618 23.7088 87.2749 24.3303C87.4938 24.9517 87.8164 25.4429 88.2425 25.804C88.6746 26.1591 89.2073 26.3366 89.8406 26.3366ZM104.018 29.2219C102.983 29.2219 102.045 28.9556 101.204 28.4229C100.37 27.8844 99.7068 27.0942 99.2156 26.0526C98.7302 25.005 98.4876 23.7206 98.4876 22.1996C98.4876 20.6371 98.7391 19.3379 99.2422 18.3022C99.7453 17.2605 100.414 16.4822 101.249 15.9673C102.089 15.4465 103.009 15.1861 104.01 15.1861C104.773 15.1861 105.409 15.3163 105.918 15.5767C106.433 15.8312 106.848 16.1508 107.161 16.5355C107.481 16.9143 107.723 17.2872 107.889 17.6541H108.005V10.8182H111.778V29H108.049V26.8161H107.889C107.712 27.1948 107.46 27.5707 107.135 27.9435C106.815 28.3105 106.398 28.6153 105.883 28.858C105.374 29.1006 104.752 29.2219 104.018 29.2219ZM105.217 26.2124C105.827 26.2124 106.342 26.0466 106.762 25.7152C107.188 25.3778 107.513 24.9073 107.738 24.3036C107.969 23.6999 108.085 22.9927 108.085 22.1818C108.085 21.371 107.972 20.6667 107.747 20.0689C107.522 19.4711 107.197 19.0095 106.771 18.6839C106.344 18.3584 105.827 18.1957 105.217 18.1957C104.596 18.1957 104.072 18.3643 103.646 18.7017C103.219 19.0391 102.897 19.5066 102.678 20.1044C102.459 20.7022 102.349 21.3946 102.349 22.1818C102.349 22.9749 102.459 23.6763 102.678 24.2859C102.903 24.8896 103.225 25.363 103.646 25.7063C104.072 26.0437 104.596 26.2124 105.217 26.2124ZM120.673 29V15.3636H124.278V17.7695H124.438C124.722 16.9705 125.195 16.3402 125.858 15.8786C126.521 15.4169 127.314 15.1861 128.237 15.1861C129.172 15.1861 129.968 15.4199 130.625 15.8874C131.282 16.3491 131.72 16.9764 131.939 17.7695H132.081C132.359 16.9883 132.863 16.3639 133.591 15.8963C134.324 15.4228 135.192 15.1861 136.192 15.1861C137.464 15.1861 138.497 15.5915 139.29 16.4023C140.089 17.2073 140.489 18.3495 140.489 19.8292V29H136.716V20.5749C136.716 19.8174 136.514 19.2492 136.112 18.8704C135.709 18.4916 135.206 18.3022 134.603 18.3022C133.916 18.3022 133.38 18.5212 132.996 18.9592C132.611 19.3912 132.419 19.9624 132.419 20.6726V29H128.752V20.495C128.752 19.8262 128.56 19.2936 128.175 18.897C127.796 18.5005 127.296 18.3022 126.675 18.3022C126.254 18.3022 125.876 18.4087 125.538 18.6218C125.207 18.829 124.944 19.1219 124.748 19.5007C124.553 19.8736 124.455 20.3116 124.455 20.8146V29H120.673ZM149.637 29.2663C148.258 29.2663 147.066 28.9734 146.059 28.3874C145.059 27.7956 144.287 26.9729 143.742 25.9194C143.198 24.86 142.926 23.6319 142.926 22.2351C142.926 20.8265 143.198 19.5954 143.742 18.5419C144.287 17.4825 145.059 16.6598 146.059 16.0739C147.066 15.482 148.258 15.1861 149.637 15.1861C151.016 15.1861 152.206 15.482 153.206 16.0739C154.212 16.6598 154.988 17.4825 155.532 18.5419C156.077 19.5954 156.349 20.8265 156.349 22.2351C156.349 23.6319 156.077 24.86 155.532 25.9194C154.988 26.9729 154.212 27.7956 153.206 28.3874C152.206 28.9734 151.016 29.2663 149.637 29.2663ZM149.655 26.3366C150.282 26.3366 150.806 26.1591 151.226 25.804C151.647 25.4429 151.963 24.9517 152.176 24.3303C152.395 23.7088 152.505 23.0015 152.505 22.2085C152.505 21.4154 152.395 20.7081 152.176 20.0866C151.963 19.4652 151.647 18.974 151.226 18.6129C150.806 18.2519 150.282 18.0714 149.655 18.0714C149.022 18.0714 148.489 18.2519 148.057 18.6129C147.631 18.974 147.308 19.4652 147.089 20.0866C146.876 20.7081 146.77 21.4154 146.77 22.2085C146.77 23.0015 146.876 23.7088 147.089 24.3303C147.308 24.9517 147.631 25.4429 148.057 25.804C148.489 26.1591 149.022 26.3366 149.655 26.3366ZM162.59 21.1165V29H158.808V15.3636H162.412V17.7695H162.572C162.874 16.9764 163.38 16.3491 164.09 15.8874C164.801 15.4199 165.662 15.1861 166.674 15.1861C167.621 15.1861 168.446 15.3932 169.151 15.8075C169.855 16.2218 170.403 16.8137 170.793 17.5831C171.184 18.3466 171.379 19.258 171.379 20.3175V29H167.597V20.9922C167.603 20.1577 167.39 19.5066 166.958 19.0391C166.526 18.5656 165.931 18.3288 165.173 18.3288C164.664 18.3288 164.215 18.4383 163.824 18.6573C163.439 18.8763 163.137 19.1959 162.919 19.6161C162.705 20.0304 162.596 20.5305 162.59 21.1165ZM180.574 29.2663C179.172 29.2663 177.964 28.9822 176.952 28.4141C175.946 27.84 175.171 27.0291 174.626 25.9815C174.082 24.928 173.809 23.6822 173.809 22.244C173.809 20.8413 174.082 19.6102 174.626 18.5508C175.171 17.4914 175.937 16.6657 176.926 16.0739C177.92 15.482 179.086 15.1861 180.423 15.1861C181.323 15.1861 182.16 15.3311 182.936 15.6211C183.717 15.9052 184.398 16.3343 184.978 16.9084C185.564 17.4825 186.019 18.2045 186.345 19.0746C186.67 19.9387 186.833 20.9508 186.833 22.1108V23.1495H175.319V20.8058H183.273C183.273 20.2612 183.155 19.7789 182.918 19.3587C182.681 18.9384 182.353 18.61 181.933 18.3732C181.518 18.1306 181.036 18.0092 180.486 18.0092C179.911 18.0092 179.402 18.1424 178.959 18.4087C178.521 18.6692 178.177 19.0213 177.929 19.4652C177.68 19.9032 177.553 20.3915 177.547 20.93V23.1584C177.547 23.8331 177.671 24.4161 177.92 24.9073C178.174 25.3986 178.532 25.7773 178.994 26.0437C179.456 26.31 180.003 26.4432 180.636 26.4432C181.057 26.4432 181.441 26.384 181.791 26.2656C182.14 26.1473 182.439 25.9697 182.687 25.733C182.936 25.4962 183.125 25.2062 183.255 24.8629L186.753 25.0938C186.576 25.9342 186.212 26.6681 185.661 27.2955C185.117 27.9169 184.412 28.4022 183.548 28.7514C182.69 29.0947 181.699 29.2663 180.574 29.2663ZM191.27 34.1136C190.79 34.1136 190.341 34.0752 189.92 33.9982C189.506 33.9272 189.163 33.8355 188.891 33.723L189.743 30.8999C190.187 31.036 190.586 31.11 190.941 31.1218C191.302 31.1336 191.613 31.0508 191.874 30.8732C192.14 30.6957 192.356 30.3938 192.522 29.9677L192.744 29.3906L187.852 15.3636H191.829L194.652 25.3778H194.794L197.644 15.3636H201.648L196.348 30.4737C196.094 31.2076 195.747 31.8468 195.309 32.3913C194.877 32.9418 194.33 33.3649 193.667 33.6609C193.004 33.9627 192.205 34.1136 191.27 34.1136Z" fill="white"/>
<path d="M34.1422 5.85781C30.3647 2.08031 25.3422 0 20 0C14.6578 0 9.63531 2.08031 5.85781 5.85781C2.08031 9.63531 0 14.6578 0 20C0 25.3422 2.08039 30.3646 5.85781 34.1422C9.63523 37.9198 14.6578 40 20 40C25.3422 40 30.3647 37.9197 34.1422 34.1422C37.9197 30.3647 40 25.3422 40 20C40 14.6578 37.9196 9.63539 34.1422 5.85781Z" fill="#33CC95"/>
<path d="M20 7V32.1429" stroke="white" stroke-width="2" stroke-linecap="round" stroke-linejoin="round"/>
<path d="M25.5714 12H17C15.9391 12 14.9217 12.4215 14.1716 13.1716C13.4214 13.9217 13 14.9392 13 16C13 17.0609 13.4214 18.0783 14.1716 18.8285C14.9217 19.5786 15.9391 20 17 20H22.7143C23.7751 20 24.7926 20.4215 25.5427 21.1716C26.2929 21.9218 26.7143 22.9392 26.7143 24C26.7143 25.0609 26.2929 26.0783 25.5427 26.8285C24.7926 27.5786 23.7751 28 22.7143 28H13" stroke="white" stroke-width="2" stroke-linecap="round" stroke-linejoin="round"/>
</svg>
